<svg width="22" height="14" viewBox="0 0 22 14" fill="none" xmlns="http://www.w3.org/2000/svg">
<path d="M16 0H2C0.9 0 0 0.89 0 2V11H2C2 12.65 3.34 14 5 14C6.66 14 8 12.65 8 11H13.5C13.5 12.65 14.84 14 16.5 14C18.16 14 19.5 12.65 19.5 11H22V6L16 0ZM2 6V2H6V6H2ZM5 12.5C4.17 12.5 3.5 11.83 3.5 11C3.5 10.17 4.17 9.5 5 9.5C5.83 9.5 6.5 10.17 6.5 11C6.5 11.83 5.83 12.5 5 12.5ZM12 6H8V2H12V6ZM16.5 12.5C15.67 12.5 15 11.83 15 11C15 10.17 15.67 9.5 16.5 9.5C17.33 9.5 18 10.17 18 11C18 11.83 17.33 12.5 16.5 12.5ZM14 6V2H15L19 6H14Z" fill="#F2F2F2" fill-opacity="0.75"/>
</svg>
