<svg width="17" height="20" viewBox="0 0 17 20" fill="none" xmlns="http://www.w3.org/2000/svg">
<path d="M1.5 20V12.5H0V7C0 5.9 0.9 5 2 5H5C6.1 5 7 5.9 7 7V12.5H5.5V20H1.5ZM14 20V14H17L14.46 6.37C14.18 5.55 13.42 5 12.56 5H12.44C11.58 5 10.81 5.55 10.54 6.37L8 14H11V20H14ZM3.5 4C4.61 4 5.5 3.11 5.5 2C5.5 0.89 4.61 0 3.5 0C2.39 0 1.5 0.89 1.5 2C1.5 3.11 2.39 4 3.5 4ZM12.5 4C13.61 4 14.5 3.11 14.5 2C14.5 0.89 13.61 0 12.5 0C11.39 0 10.5 0.89 10.5 2C10.5 3.11 11.39 4 12.5 4Z" fill="#F2F2F2" fill-opacity="0.75"/>
</svg>
