<svg width="24" height="24" viewBox="0 0 24 24" fill="none" xmlns="http://www.w3.org/2000/svg">
<path d="M1.38589 14.1768L2.11607 14.0056L1.38589 14.1768ZM1.38589 7.50711L2.11607 7.67839L1.38589 7.50711ZM20.2981 7.50711L21.0282 7.33584L20.2981 7.50711ZM20.2981 14.1768L21.0282 14.3481L20.2981 14.1768ZM14.1768 20.2981L14.0056 19.5679L14.1768 20.2981ZM7.50711 20.2981L7.33584 21.0282L7.50711 20.2981ZM7.50711 1.38589L7.33583 0.655708L7.50711 1.38589ZM14.1768 1.38589L14.3481 0.655708L14.1768 1.38589ZM22.4697 23.5303C22.7626 23.8232 23.2374 23.8232 23.5303 23.5303C23.8232 23.2374 23.8232 22.7626 23.5303 22.4697L22.4697 23.5303ZM2.11607 14.0056C1.62798 11.9247 1.62798 9.75921 2.11607 7.67839L0.655709 7.33583C0.114764 9.64196 0.114763 12.042 0.655709 14.3481L2.11607 14.0056ZM19.5679 7.67839C20.056 9.75921 20.056 11.9247 19.5679 14.0056L21.0282 14.3481C21.5692 12.042 21.5692 9.64196 21.0282 7.33584L19.5679 7.67839ZM14.0056 19.5679C11.9247 20.056 9.75921 20.056 7.67839 19.5679L7.33584 21.0282C9.64196 21.5692 12.042 21.5692 14.3481 21.0282L14.0056 19.5679ZM7.67839 2.11607C9.75921 1.62798 11.9247 1.62798 14.0056 2.11607L14.3481 0.655708C12.042 0.114764 9.64196 0.114764 7.33583 0.655708L7.67839 2.11607ZM7.67839 19.5679C4.91845 18.9205 2.76347 16.7655 2.11607 14.0056L0.655709 14.3481C1.43321 17.6627 4.02126 20.2507 7.33584 21.0282L7.67839 19.5679ZM14.3481 21.0282C17.6627 20.2507 20.2507 17.6627 21.0282 14.3481L19.5679 14.0056C18.9205 16.7655 16.7655 18.9205 14.0056 19.5679L14.3481 21.0282ZM14.0056 2.11607C16.7655 2.76346 18.9205 4.91845 19.5679 7.67839L21.0282 7.33584C20.2507 4.02126 17.6627 1.4332 14.3481 0.655708L14.0056 2.11607ZM7.33583 0.655708C4.02126 1.4332 1.43321 4.02125 0.655709 7.33583L2.11607 7.67839C2.76347 4.91845 4.91845 2.76346 7.67839 2.11607L7.33583 0.655708ZM17.9904 19.0511L22.4697 23.5303L23.5303 22.4697L19.0511 17.9904L17.9904 19.0511Z" fill="#F2F2F2" fill-opacity="0.75"/>
</svg>
