<svg width="34" height="28" viewBox="0 0 34 28" fill="none" xmlns="http://www.w3.org/2000/svg">
<path d="M25.3333 0.666626H30.3333C32.1666 0.666626 33.6666 2.16663 33.6666 3.99996V7.33329H30.3333V3.99996H25.3333V0.666626ZM3.6666 7.33329V3.99996H8.6666V0.666626H3.6666C1.83327 0.666626 0.333267 2.16663 0.333267 3.99996V7.33329H3.6666ZM30.3333 20.6666V24H25.3333V27.3333H30.3333C32.1666 27.3333 33.6666 25.8333 33.6666 24V20.6666H30.3333ZM8.6666 24H3.6666V20.6666H0.333267V24C0.333267 25.8333 1.83327 27.3333 3.6666 27.3333H8.6666V24ZM26.9999 7.33329H6.99993V20.6666H26.9999V7.33329Z" fill="#F2F2F2" fill-opacity="0.75"/>
</svg>
