<svg width="360" height="640" viewBox="0 0 360 640" fill="none" xmlns="http://www.w3.org/2000/svg">
<g clip-path="url(#clip0)">
<rect width="360" height="640" fill="#363535"/>
<path d="M292.487 292L398.975 505.095H186L292.487 292Z" fill="#F2F2F2" fill-opacity="0.75"/>
<rect x="285.675" y="391.397" width="156.325" height="156.603" fill="#C4C4C4" fill-opacity="0.75"/>
<path opacity="0.75" fill-rule="evenodd" clip-rule="evenodd" d="M-12.266 131.054C-12.1082 131.054 -11.9791 130.925 -11.9791 130.767C-11.9791 130.609 -12.1082 130.48 -12.266 130.48C-12.4238 130.48 -12.5529 130.609 -12.5529 130.767C-12.5529 130.925 -12.4238 131.054 -12.266 131.054ZM-13.0738 133.576C-12.7872 132.99 -12.5529 132.313 -12.5529 132.07C-12.5529 131.196 -13.0408 131.656 -13.6811 133.134C-14.04 133.962 -14.8344 135.737 -15.4466 137.078C-16.4159 139.203 -17.3181 141.814 -19.3121 148.266C-20.0256 150.575 -20.4823 153.25 -21.1972 159.311C-21.5876 162.62 -21.5873 175.084 -21.1966 178.818C-20.7253 183.326 -19.9688 188.354 -19.4596 190.365C-19.2898 191.035 -19.0218 192.1 -18.864 192.731L-18.2903 195.026C-18.1325 195.658 -17.8804 196.658 -17.7298 197.25C-17.5791 197.841 -17.3379 198.842 -17.1936 199.473C-17.0496 200.104 -16.6067 201.524 -16.2099 202.628C-14.5762 207.175 -14.2592 208.253 -14.4606 208.579C-14.6361 208.863 -15.5843 208.763 -17.6449 208.243C-18.3156 208.074 -19.3804 207.807 -20.0115 207.649C-20.6426 207.491 -21.7075 207.225 -22.3782 207.057C-23.0489 206.889 -24.2429 206.627 -25.0318 206.474C-25.8207 206.321 -27.1116 206.065 -27.9005 205.905C-28.6894 205.745 -30.0448 205.501 -30.9126 205.363C-31.7804 205.224 -33.0389 204.972 -33.7096 204.802C-34.3803 204.632 -35.4131 204.381 -36.0046 204.244C-36.9799 204.018 -38.9221 203.353 -42.3327 202.078C-44.5603 201.245 -46.8165 199.984 -47.9671 198.93C-50.0274 197.043 -48.1774 199.849 -48.1774 199.849C-46.1288 201.952 -42.9386 203.793 -36.2198 206.747C-34.2831 207.599 -32.7598 208.106 -28.4742 209.324C-23.7827 210.659 -18.601 212.405 -16.9994 213.191C-12.0004 215.646 -9.084 218.826 -6.28098 224.882C-5.59248 226.369 -4.39851 228.911 -3.62741 230.53C-2.85631 232.149 -2.22549 233.626 -2.22549 233.812C-2.22549 233.998 -1.68962 235.061 -1.0347 236.175C-0.379776 237.289 0.671906 239.104 1.30215 240.209C3.16309 243.47 5.66949 247.61 11.4769 257.019C12.1195 258.06 13.3981 260.078 14.3181 261.503C15.2381 262.928 16.342 264.723 16.7714 265.491C17.2006 266.259 18.3297 268.114 19.2804 269.613C21.0885 272.464 23.4779 276.441 25.3549 279.725C25.9636 280.79 26.9674 282.533 27.5859 283.598C28.8742 285.817 35.1599 298.596 36.4399 301.599C36.9106 302.704 37.5179 304.124 37.7896 304.755C38.061 305.386 38.7856 307.427 39.3998 309.29C40.014 311.154 40.6687 312.961 40.8546 313.306C41.0405 313.652 41.2932 314.386 41.4162 314.939C41.5393 315.491 41.7292 316.318 41.8382 316.776C41.8533 316.839 41.8688 316.899 41.8833 316.955C41.9395 317.171 41.9805 317.328 41.9196 317.407C41.7548 317.62 40.844 317.254 37.4692 315.899L37.4031 315.873C37.099 315.751 36.7752 315.621 36.4304 315.483C33.0121 314.113 30.3875 313.27 30.0011 313.419C29.7747 313.505 29.4345 313.388 29.2449 313.159C29.0552 312.929 28.3191 312.582 27.6091 312.388C25.9028 311.921 25.1719 311.663 18.925 309.319C17.1851 308.666 11.5113 305.76 10.1478 304.824C8.97366 304.017 7.61649 302.862 5.84563 301.16C4.91559 300.266 4.01254 299.11 2.99615 297.512C1.84781 295.706 1.43842 295.936 2.1404 297.993C2.54173 299.169 3.93965 301.373 4.73228 302.08C5.02863 302.344 5.36653 302.925 5.48329 303.371C5.59976 303.816 5.95723 304.299 6.27737 304.444C6.59752 304.588 6.97762 304.975 7.12192 305.304C7.26649 305.633 7.67531 306.03 8.03017 306.185C8.38503 306.341 8.6756 306.592 8.6756 306.743C8.6756 307.217 10.1937 308.627 10.7029 308.627C10.9697 308.627 11.6881 309.112 12.2985 309.705C12.9093 310.297 13.8608 311.1 14.413 311.488C14.9653 311.877 15.5918 312.364 15.8055 312.572C16.0192 312.78 16.7292 313.22 17.3833 313.552C18.0374 313.883 19.9281 314.959 21.5848 315.944C23.2415 316.928 25.6093 318.299 26.8463 318.99C30.9557 321.284 37.6433 325.821 39.1769 327.354C40.0088 328.186 41.0858 329.445 41.57 330.15C42.8351 331.994 44.5839 335.545 44.8857 336.884C45.028 337.515 45.2847 338.677 45.4565 339.466C46.0871 342.36 45.7738 351.564 44.8808 356.392C44.4468 358.737 41.7751 366.371 40.4922 368.93C38.8711 372.164 34.914 378.637 34.2149 379.198C34.1165 379.277 33.7258 379.793 33.3466 380.345C32.9673 380.897 32.58 381.414 32.4859 381.493C32.3918 381.572 32.0046 382.088 31.6253 382.64C31.2461 383.192 30.8588 383.709 30.7647 383.788C30.6706 383.867 30.2822 384.383 29.9012 384.935C29.5206 385.487 28.8765 386.262 28.4697 386.656C28.063 387.051 27.4175 387.825 27.0354 388.378C26.6533 388.93 26.0078 389.704 25.601 390.099C25.1942 390.493 24.5488 391.268 24.1667 391.82C23.7846 392.372 23.1391 393.147 22.7323 393.541C22.3255 393.936 21.6812 394.71 21.3006 395.263C20.9196 395.815 20.4021 396.46 20.1505 396.697C19.8989 396.934 19.3825 397.579 19.003 398.131C18.6235 398.684 18.1071 399.329 17.8555 399.566C17.6039 399.802 17.0829 400.446 16.6977 400.997C16.3127 401.547 15.7123 402.322 15.3634 402.718C15.0146 403.114 14.3958 403.826 13.9885 404.299L13.248 405.16L12.4678 404.193C12.0389 403.661 11.1697 402.693 10.5363 402.041C9.90314 401.39 9.06549 400.405 8.67506 399.853C7.75908 398.557 5.37 396.17 4.08568 395.267C3.53345 394.879 2.50072 393.973 1.79071 393.254C1.0807 392.536 0.0479584 391.631 -0.504272 391.245C-1.0565 390.858 -1.80409 390.249 -2.16556 389.891C-2.52702 389.533 -3.237 389.027 -3.74333 388.766C-4.24966 388.506 -5.77696 387.545 -7.13702 386.631C-9.48047 385.057 -18.3259 380.551 -21.7327 379.195C-23.1972 378.613 -30.0422 375.482 -31.3429 374.8C-33.3829 373.73 -35.938 372.254 -36.0671 372.071C-36.1512 371.952 -36.6716 371.541 -37.2238 371.156C-39.1507 369.815 -43.8078 364.863 -44.5763 363.338C-44.9908 362.515 -45.5479 361.519 -45.8147 361.125C-46.0818 360.73 -46.5316 359.698 -46.8148 358.83C-48.1946 354.602 -48.4901 352.261 -48.4806 345.634C-48.4714 339.306 -48.1605 336.089 -46.9906 330.215C-46.8257 329.386 -46.5695 328.095 -46.4218 327.346C-46.0167 325.293 -45.6601 323.856 -45.1231 322.11C-44.8563 321.243 -44.5187 320.049 -44.3732 319.457C-44.2278 318.865 -43.9902 317.897 -43.8456 317.305C-43.5834 316.235 -43.2696 314.973 -42.7203 312.787C-42.5619 312.156 -42.2136 310.93 -41.9468 310.062C-41.6797 309.194 -41.347 308 -41.2073 307.408C-41.0676 306.817 -40.83 305.849 -40.6794 305.257C-40.4092 304.195 -40.139 303.118 -39.5102 300.595C-39.3329 299.885 -39.0747 298.594 -38.9361 297.726C-38.7976 296.859 -38.542 295.439 -38.3681 294.571C-38.1943 293.703 -37.9143 292.089 -37.7465 290.985C-37.3337 288.272 -37.3297 275.318 -37.7408 273.486C-37.9178 272.697 -38.1375 271.6 -38.2287 271.047C-38.5004 269.405 -39.0179 267.892 -39.3079 267.892C-39.4689 267.892 -39.493 268.387 -39.3676 269.111C-39.0397 271.001 -39.1154 283.606 -39.4663 285.534C-40.2667 289.933 -40.6551 291.66 -41.3708 293.997C-43.0958 299.631 -44.8098 304.73 -45.5175 306.332C-45.9705 307.358 -46.6134 308.875 -46.9462 309.703L-48.1562 312.715C-48.7204 314.12 -49.6749 316.383 -50.849 319.098C-51.1219 319.729 -51.5789 320.973 -51.8643 321.863C-52.15 322.753 -52.6537 324.01 -52.9839 324.658C-53.3141 325.305 -54.229 327.782 -55.0167 330.163C-55.8045 332.544 -56.5996 334.773 -56.7835 335.115C-56.9677 335.457 -57.2248 336.221 -57.355 336.813C-57.4853 337.404 -57.7148 338.373 -57.8654 338.964C-58.6238 341.945 -58.8048 342.757 -59.0647 344.343C-60.5995 353.709 -60.0731 362.251 -57.501 369.731C-57.0942 370.914 -56.8535 371.975 -56.9663 372.089C-57.0793 372.202 -60.6548 372.352 -64.912 372.423C-69.1692 372.494 -73.8142 372.688 -75.2343 372.856C-84.6279 373.964 -87.3784 374.38 -90.5819 375.182C-91.8481 375.498 -93.0223 375.746 -95.889 376.302C-96.6779 376.455 -97.9043 376.725 -98.6143 376.903C-99.3243 377.08 -100.486 377.329 -101.196 377.455C-101.906 377.581 -103.584 378.035 -104.925 378.464C-106.267 378.893 -107.88 379.373 -108.511 379.531C-111.173 380.194 -122.199 383.563 -125.437 384.703C-126.842 385.197 -141.208 390.08 -141.286 390.09C-141.326 390.095 -141.358 390.24 -141.358 390.412C-141.358 390.749 -139.736 390.648 -136.553 390.113C-132.49 389.431 -131.08 389.205 -129.238 388.941C-121.891 387.891 -119.699 387.613 -115.683 387.219C-114.105 387.064 -111.523 386.806 -109.946 386.646C-102.85 385.925 -98.974 385.753 -89.7213 385.748C-84.2779 385.744 -78.5333 385.879 -76.9555 386.047C-72.8116 386.488 -69.7519 386.875 -67.7039 387.218L-66.7192 387.382L-65.96 387.508C-65.3337 387.613 -64.7166 387.715 -64.2614 387.791C-60.9039 388.348 -59.7059 388.601 -58.1654 389.077C-51.3075 391.198 -47.3208 392.573 -45.1128 393.578C-39.4514 396.157 -37.2238 397.28 -37.2238 397.557C-37.2238 397.844 -45.2817 401.879 -49.129 403.518C-50.2334 403.988 -52.0407 404.772 -53.1452 405.259C-54.2496 405.747 -55.9923 406.399 -57.0179 406.708C-58.0435 407.018 -59.9799 407.623 -61.321 408.052C-62.6621 408.482 -64.5339 408.947 -65.4806 409.086C-66.4273 409.225 -68.1055 409.479 -69.21 409.649C-71.4593 409.996 -80.4284 410.062 -82.7985 409.749C-84.03 409.587 -84.3126 409.624 -84.2096 409.935C-84.088 410.302 -78.9234 412.211 -76.9925 412.602C-73.9623 413.215 -73.05 413.394 -71.5049 413.675C-69.2949 414.078 -55.6935 414.085 -53.432 413.684C-52.4854 413.516 -51.1623 413.24 -50.4916 413.07C-49.8209 412.901 -48.7885 412.647 -48.1966 412.508C-47.6051 412.368 -46.4109 412.035 -45.5431 411.769C-43.4753 411.134 -40.5248 410.298 -39.0885 409.938C-38.4574 409.78 -37.231 409.43 -36.3632 409.161C-35.4954 408.891 -34.14 408.554 -33.351 408.412C-32.5621 408.27 -31.2712 408.021 -30.4823 407.859C-29.6934 407.698 -28.2089 407.475 -27.1833 407.364C-26.1577 407.253 -25.1568 407.058 -24.9589 406.932C-24.4368 406.598 -22.4915 407.781 -21.8914 408.797C-21.6125 409.269 -20.7092 410.33 -19.8839 411.156C-19.0585 411.981 -17.8236 413.487 -17.1391 414.502C-16.4549 415.517 -15.7942 416.416 -15.6709 416.5C-15.2409 416.793 -12.6966 421.498 -11.2548 424.667C-10.1864 427.015 -9.89156 427.973 -9.04845 431.839C-8.36053 434.993 -8.71136 444.22 -9.66234 447.975C-9.83217 448.646 -10.0832 449.679 -10.22 450.27C-10.3572 450.862 -10.794 452.25 -11.1908 453.354C-12.3733 456.645 -12.4657 456.924 -13.7038 460.956C-14.3579 463.086 -15.3992 466.401 -16.018 468.323C-16.6365 470.245 -17.1428 472.119 -17.1428 472.487C-17.1428 472.855 -17.401 473.863 -17.7166 474.726C-18.0321 475.589 -18.2923 476.62 -18.2946 477.017C-18.2969 477.414 -18.5074 478.319 -18.7628 479.029C-19.2418 480.362 -19.5648 481.624 -20.0296 483.978C-20.1773 484.727 -20.4335 486.018 -20.5985 486.846C-20.7634 487.675 -21.0156 489.062 -21.159 489.93C-21.3024 490.798 -21.5606 492.218 -21.7327 493.086C-21.9049 493.954 -22.1691 495.406 -22.3197 496.313C-22.6384 498.234 -23.0443 500.671 -23.4666 503.198C-23.6315 504.184 -23.8897 505.991 -24.0403 507.214C-24.1912 508.437 -24.4465 510.503 -24.608 511.804C-25.0561 515.418 -25.4477 519.023 -25.7535 522.347C-26.7739 533.433 -27.1776 538.653 -27.2622 541.854L-27.3268 609H-14.4893H-1.65176C23.8689 609 29.4019 615.07 29.2915 614.5C29.8232 591.777 24.1867 577.776 23.9115 569.295C23.6891 562.443 23.455 555.229 23.6159 539.559C23.6159 539.559 23.3821 535.844 23.3227 535.686V534.87L23.3491 533.73C22.9452 532.94 23.1184 500.141 23.5602 493.803C24.1437 485.431 24.8752 479.257 25.8879 474.152C26.06 473.284 26.3182 471.864 26.4616 470.997C26.8234 468.806 27.2287 466.78 27.6091 465.259C27.7867 464.549 28.0351 463.387 28.1611 462.677C28.287 461.967 28.7408 460.289 29.1694 458.948C29.598 457.607 30.2064 455.606 30.5217 454.502C31.7429 450.22 32.2464 448.698 33.0376 446.899C33.4888 445.874 34.1421 444.325 34.4892 443.457C35.684 440.471 38.8462 434.13 40.2114 431.982C40.9633 430.799 42.0066 429.141 42.5296 428.298C43.0526 427.456 43.628 426.616 43.8082 426.433C43.9883 426.251 44.7018 425.262 45.3934 424.237C46.0851 423.211 46.9864 422.049 47.3967 421.655C47.8069 421.26 48.4592 420.486 48.8465 419.934C49.755 418.637 54.4204 413.971 55.7225 413.056C56.2747 412.667 57.1784 411.89 57.7306 411.327C58.2828 410.765 59.1865 409.992 59.7387 409.61C60.291 409.229 60.9364 408.71 61.1731 408.459C61.4097 408.207 62.0552 407.691 62.6074 407.311C63.1597 406.932 63.676 406.54 63.7549 406.44C64.0381 406.082 69.1303 402.766 72.6479 400.649C76.3081 398.447 84.7043 394.115 85.3133 394.115C85.4986 394.115 86.2425 393.763 86.9662 393.332C88.3662 392.499 88.6441 392.378 92.442 390.96C93.7832 390.459 95.3851 389.86 96.0018 389.629C96.6186 389.399 97.3932 389.064 97.7231 388.887C98.3929 388.527 100.386 388.041 101.048 388.077C102.094 388.133 106.197 388.65 107.503 388.89C108.843 389.136 112.662 390.4 116.215 391.774C118.729 392.746 125.448 396.932 126.867 398.41C127.261 398.821 128.036 399.474 128.588 399.861C129.881 400.767 133.407 404.292 134.318 405.59C134.706 406.142 135.193 406.769 135.401 406.982C135.609 407.196 136.02 407.842 136.315 408.417C136.61 408.992 137.135 409.785 137.481 410.18C137.827 410.574 138.354 411.372 138.652 411.953C139.22 413.06 139.695 413.512 139.987 413.22C140.218 412.989 138.997 409.277 138.043 407.311C137.621 406.443 137.197 405.411 137.101 405.016C136.794 403.761 131.99 395.996 130.889 394.976C130.634 394.739 130.11 394.094 129.724 393.541C128.818 392.244 124.722 388.148 123.424 387.241C122.872 386.856 122.226 386.334 121.99 386.083C121.753 385.831 121.108 385.315 120.555 384.936C117.842 383.071 118.335 382.876 129.305 381.469C139.571 380.153 156.705 380.422 166.383 382.052C167.369 382.217 168.918 382.476 169.826 382.627C170.733 382.778 172.121 383.032 172.909 383.192C173.698 383.352 175.021 383.616 175.85 383.779L177.502 384.104L178.719 384.343C180.766 384.748 182.206 385.104 183.954 385.641C184.822 385.907 186.435 386.383 187.54 386.699C188.644 387.015 190.339 387.522 191.307 387.825C192.274 388.129 193.271 388.378 193.523 388.378C193.774 388.378 194.564 388.636 195.278 388.951L197.875 390.099C199.36 390.755 200.118 390.834 199.951 390.314C199.798 389.84 195.788 387.638 188.4 383.97C180.894 380.243 179.824 379.772 178.873 379.772C178.453 379.772 177.831 379.509 177.49 379.189C176.869 378.606 175.205 377.887 172.121 376.872C170.1 376.207 167.57 375.364 165.379 374.626C162.994 373.823 160.742 373.147 159.426 372.841C158.795 372.694 157.763 372.442 157.132 372.282C156.5 372.121 155.403 371.877 154.693 371.739C153.485 371.504 152.849 371.354 149.745 370.571C149.074 370.402 148.106 370.194 147.593 370.109C146.267 369.89 146.383 369.473 148.095 368.297C148.647 367.917 149.164 367.53 149.243 367.436C149.321 367.342 149.838 366.955 150.39 366.575C150.942 366.196 151.459 365.809 151.538 365.715C151.616 365.621 152.133 365.228 152.685 364.842C153.987 363.932 160.369 357.551 161.279 356.248C161.665 355.696 162.187 355.05 162.439 354.814C162.69 354.577 163.207 353.932 163.586 353.379C163.965 352.827 164.357 352.311 164.457 352.232C164.739 352.009 167.944 347.164 169.39 344.773C171.338 341.554 175.271 333.219 175.887 331.003C176.525 328.711 177.344 325.885 177.798 324.405C178.617 321.737 178.808 320.819 179.546 316.014C179.653 315.321 179.599 314.939 179.394 314.939C179.22 314.939 179.074 315.164 179.07 315.441C179.064 315.879 177.136 321.643 175.805 325.198C174.85 327.753 171.485 334.091 169.537 337.006C168.421 338.675 167.427 340.104 167.327 340.183C167.226 340.262 166.834 340.779 166.455 341.331C166.076 341.883 165.688 342.399 165.594 342.478C165.5 342.557 165.111 343.067 164.731 343.612C164.011 344.642 161.55 347.343 159.918 348.896C159.4 349.39 158.173 350.569 157.193 351.518C156.212 352.466 154.958 353.557 154.406 353.942C153.854 354.327 153.338 354.72 153.259 354.814C153.18 354.908 152.664 355.295 152.111 355.674C151.559 356.054 151.043 356.446 150.964 356.546C150.885 356.646 149.456 357.64 147.788 358.755C142.559 362.25 135.832 365.283 131.6 366.054C126.291 367.02 123.321 367.301 113.957 367.721C106.233 368.068 100.244 368.619 95.3825 369.432C94.3962 369.596 92.8471 369.854 91.94 370.005C88.3275 370.605 87.3702 370.812 86.1309 371.262C85.4209 371.52 84.5264 371.733 84.1432 371.735C83.7599 371.737 83.0209 371.893 82.5008 372.081C81.9807 372.269 81.473 372.34 81.372 372.239C81.1548 372.022 82.2243 370.224 83.0935 369.345C83.4297 369.005 84.0198 368.275 84.4048 367.723C84.7897 367.171 85.4372 366.396 85.844 366.002C86.2508 365.607 86.8951 364.833 87.2758 364.28C87.6567 363.728 88.1742 363.083 88.4258 362.846C88.6774 362.609 89.1938 361.964 89.573 361.412C89.9526 360.86 90.3398 360.343 90.4339 360.264C90.528 360.185 90.9153 359.669 91.2948 359.117C91.6741 358.565 92.1933 357.919 92.4486 357.682C92.7039 357.446 93.4768 356.413 94.1659 355.387C94.8552 354.362 95.7577 353.2 96.1714 352.806C96.585 352.411 97.4869 351.249 98.1754 350.224C98.8639 349.198 99.5126 348.295 99.6164 348.216C99.7206 348.137 100.623 346.846 101.622 345.347C102.621 343.848 103.52 342.557 103.62 342.478C103.72 342.399 104.111 341.883 104.491 341.331C104.87 340.779 105.263 340.262 105.364 340.183C105.709 339.913 111.285 331.438 113.29 328.135L114.235 326.579C115.05 325.236 115.818 323.97 116.164 323.401C119.484 317.936 121.543 314.141 124.802 307.48C129.693 297.486 130.564 295.601 131.181 293.671C131.466 292.781 131.963 291.535 132.286 290.902C132.609 290.268 133.443 288.092 134.138 286.064C134.833 284.037 135.539 281.991 135.705 281.518C135.872 281.045 136.652 278.592 137.439 276.068C138.785 271.75 139.197 270.312 139.777 267.892C139.909 267.339 140.237 266.178 140.503 265.31C141.041 263.563 141.406 262.09 141.784 260.146C141.922 259.436 142.18 258.274 142.358 257.564C142.933 255.263 143.538 251.924 144.073 248.098C144.216 247.072 144.477 245.523 144.653 244.655C145.011 242.887 145.41 240.119 145.771 236.91C145.904 235.726 146.093 234.5 146.19 234.184C146.288 233.869 146.443 231.997 146.535 230.025C146.627 228.052 146.83 224.632 146.987 222.423C147.579 214.116 147.321 199.072 146.393 187.711C145.703 179.259 145.299 179.101 145.109 187.209C145.033 190.483 144.836 194.711 144.672 196.604C144.004 204.319 143.799 206.462 143.524 208.653C143.141 211.688 142.734 214.542 142.358 216.829C142.189 217.854 141.943 219.532 141.813 220.558C141.681 221.584 141.414 222.874 141.217 223.427C140.858 224.438 140.536 225.969 140.072 228.877C139.731 231.01 139.368 232.499 138.814 234.041C138.559 234.751 138.348 235.634 138.346 236.003C138.343 236.371 137.964 237.856 137.503 239.302C137.042 240.747 136.386 242.898 136.046 244.081C134.967 247.838 131.921 256.813 130.836 259.429C130.245 260.856 129.612 262.427 128.525 265.166C127.935 266.655 126.114 270.7 123.973 275.279C123.291 276.738 122.646 277.932 122.54 277.932C122.153 277.932 121.797 277.158 120.889 274.346C119.983 271.543 119.603 270.551 117.974 266.744C117.535 265.719 116.89 264.17 116.541 263.302C116.192 262.434 115.409 260.627 114.801 259.286C114.194 257.944 113.42 256.073 113.082 255.126C111.95 251.961 111.65 251.207 111.079 250.086C110.468 248.89 107.175 239.235 106.732 237.34C105.776 233.259 105.311 230.132 105.164 226.797C105.09 225.101 104.918 223.714 104.783 223.714C104.492 223.714 104.176 227.003 104.176 230.025C104.177 234.686 105.097 242.204 106.212 246.663C106.389 247.373 106.638 248.535 106.764 249.245C106.89 249.955 107.344 251.633 107.773 252.974C108.202 254.316 108.683 255.929 108.841 256.56C109.599 259.589 109.718 260.07 109.943 261.007C110.075 261.559 110.402 262.721 110.669 263.589C110.936 264.456 111.269 265.651 111.408 266.242C111.548 266.834 111.8 267.866 111.967 268.537C112.135 269.208 112.393 270.37 112.541 271.119C112.689 271.868 112.946 273.159 113.113 273.988C113.569 276.251 113.954 279.151 114.265 282.666C114.607 286.534 114.616 287.691 114.327 290.985C114.116 293.391 114.006 293.721 112.709 295.834C111.943 297.08 111.092 298.341 110.818 298.636C110.544 298.93 109.819 300.026 109.207 301.072C108.596 302.118 107.958 303.116 107.79 303.29C107.622 303.465 107.172 304.059 106.79 304.611C106.408 305.163 106.016 305.68 105.917 305.759C105.819 305.838 105.176 306.741 104.489 307.767C103.802 308.792 103.031 309.825 102.776 310.062C102.521 310.298 102.001 310.944 101.622 311.496C101.242 312.048 100.726 312.694 100.474 312.931C100.223 313.167 99.7065 313.813 99.327 314.365C98.9474 314.917 98.431 315.563 98.1795 315.799C97.9279 316.036 97.4104 316.681 97.0294 317.234C96.6487 317.786 96.0044 318.56 95.5976 318.955C95.1908 319.349 94.5436 320.124 94.1592 320.676C93.7745 321.228 92.7438 322.39 91.8683 323.258C90.9928 324.126 89.958 325.288 89.5685 325.84C89.1789 326.392 87.5517 328.153 85.9527 329.753C84.3534 331.353 82.8181 333.046 82.541 333.515C82.2638 333.984 81.6735 334.583 81.2291 334.845C80.7844 335.108 80.1321 335.738 79.7793 336.247C79.4261 336.755 78.8134 337.429 78.4175 337.745C77.2737 338.657 74.656 341.309 74.656 341.556C74.656 341.68 74.2765 342.005 73.8123 342.279C73.3484 342.553 72.4342 343.291 71.7807 343.919C71.1275 344.547 70.4904 345.06 70.3647 345.06C69.7789 345.06 69.5225 344.112 69.3937 341.47C69.3171 339.894 69.1142 337.799 68.943 336.813C68.7717 335.827 68.5087 334.277 68.358 333.37C67.986 331.128 67.5806 329.094 67.2154 327.633C67.0476 326.962 66.7975 325.93 66.6595 325.338C66.5215 324.746 65.9512 322.842 65.3921 321.106C64.8333 319.371 64.2127 317.37 64.0137 316.66C63.8143 315.95 63.3544 314.765 62.9915 314.027C62.6289 313.289 62.019 311.805 61.6366 310.728C60.297 306.957 60.0104 306.295 57.9013 302.099C55.9158 298.148 53.1542 293.357 51.3297 290.698C49.6236 288.211 45.4571 281.691 44.2726 279.653C43.5847 278.47 42.6521 276.88 42.2003 276.12C41.7484 275.36 41.379 274.606 41.379 274.443C41.379 274.281 41.1073 273.766 40.7751 273.3C40.4429 272.833 39.9116 271.781 39.5946 270.961C38.4512 268.003 37.569 265.432 37.312 264.306C37.1677 263.675 36.9184 262.642 36.758 262.011C35.5167 257.129 34.7399 249.995 34.7427 243.508C34.7453 237.851 35.4737 229.423 36.2055 226.582C36.3885 225.872 36.651 224.71 36.789 224C37.2968 221.388 37.6238 220.187 39.1026 215.5C39.4079 214.533 39.6577 213.535 39.6577 213.282C39.6577 213.03 40.0321 212.014 40.4897 211.025C40.9472 210.036 41.6044 208.517 41.9504 207.649C42.2961 206.781 43.4708 204.23 44.5609 201.98C45.6508 199.731 46.5426 197.827 46.5426 197.749C46.5426 197.191 45.8057 197.882 44.7818 199.401C44.1174 200.387 43.4857 201.259 43.3781 201.338C43.2709 201.416 42.6687 202.32 42.0405 203.346C41.4119 204.371 40.2168 206.308 39.3843 207.649C37.8157 210.176 33.9326 217.735 33.2327 219.623C33.0129 220.216 32.5465 221.411 32.1968 222.279C31.1953 224.762 28.6281 232.639 28.1298 234.758C27.1188 239.057 26.225 244.969 25.9427 249.222C25.8199 251.073 25.6179 252.253 25.412 252.321C25.2292 252.382 24.7137 251.94 24.2662 251.34C23.8187 250.74 23.3812 250.185 23.294 250.106C23.2065 250.027 22.8247 249.51 22.4454 248.958C22.0662 248.406 21.6789 247.89 21.5848 247.811C21.4907 247.732 21.1034 247.215 20.7242 246.663C20.345 246.111 19.9577 245.595 19.8636 245.516C19.7695 245.437 19.3822 244.92 19.003 244.368C18.6237 243.816 18.233 243.3 18.1346 243.221C18.0362 243.142 17.3942 242.238 16.708 241.213C16.0218 240.187 15.3798 239.283 15.2814 239.205C15.183 239.126 14.7923 238.609 14.413 238.057C14.0338 237.505 13.6419 236.988 13.5421 236.91C13.4422 236.831 12.5403 235.54 11.538 234.041C10.5357 232.542 9.54196 231.141 9.32968 230.927C9.1174 230.713 8.70227 230.068 8.40736 229.493C8.11217 228.918 7.58777 228.124 7.24181 227.73C6.89584 227.335 6.41248 226.625 6.16748 226.152C5.92278 225.679 5.11037 224.383 4.36249 223.272C-0.460968 216.111 -7.08365 203.587 -10.1953 195.744C-10.5083 194.955 -11.0339 193.664 -11.3629 192.875C-11.9992 191.35 -14.0394 185.042 -14.5177 183.121C-14.6746 182.49 -15.0237 181.264 -15.2934 180.396C-15.563 179.528 -15.8958 178.205 -16.0329 177.456C-16.17 176.706 -16.4199 175.415 -16.588 174.587C-17.1819 171.663 -17.465 168.424 -17.6615 162.307C-17.9612 152.973 -17.294 146.764 -15.2896 140.234C-15.0231 139.366 -14.5328 137.753 -14.2001 136.648C-13.867 135.544 -13.3601 134.161 -13.0738 133.576ZM-142.362 391.246C-142.125 391.246 -141.932 391.117 -141.932 390.96C-141.932 390.802 -142.125 390.673 -142.362 390.673C-142.599 390.673 -142.792 390.802 -142.792 390.96C-142.792 391.117 -142.599 391.246 -142.362 391.246Z" fill="#C4C4C4"/>
<g opacity="0.75" clip-path="url(#clip1)">
<path fill-rule="evenodd" clip-rule="evenodd" d="M27.3238 529.443C24.8269 527.342 22.912 524.576 22.5851 521.173C21.6431 511.367 35.4923 511.241 38.9355 515.694C42.3787 520.146 44.1433 532.608 40.8977 534.05C39.6033 534.625 36.5787 534.253 33.35 532.976L37.3703 545.691L26.5004 547.51L27.3238 529.443Z" fill="#F2F2F2"/>
<path fill-rule="evenodd" clip-rule="evenodd" d="M26.8537 531.764C24.4737 525.923 19.8947 522.436 20.0343 519.624C20.1274 517.749 20.9939 516.448 22.6338 515.72C22.9201 511.987 25.5235 509.983 30.4438 509.71C37.8243 509.301 42.7505 511.57 41.9487 518.511C40.193 518.805 37.9673 518.525 35.2186 520.103C34.3464 520.604 33.8605 521.785 33.7606 523.648L32.4362 523.87C30.7943 521.954 29.3958 521.383 28.2409 522.157C27.086 522.931 27.0316 524.35 28.0776 526.415L28.2626 531.528L26.8537 531.764Z" fill="#F2F2F2"/>
<path fill-rule="evenodd" clip-rule="evenodd" d="M118.89 645.655C108.136 636.245 100.741 629.172 96.7061 624.437C89.7969 616.328 84.0344 609.048 82.1268 606.218C77.5778 599.47 87.9901 594.211 91.0464 597.202C95.6722 601.73 106.424 616.613 123.301 641.852L118.89 645.655Z" fill="#F2F2F2"/>
<path fill-rule="evenodd" clip-rule="evenodd" d="M100.061 645.547L76.4426 606.495C71.6122 599.464 87.938 591.579 91.144 594.691C98.4228 601.756 117.837 631.181 120.006 633.286L100.061 645.547Z" fill="#F2F2F2"/>
<path fill-rule="evenodd" clip-rule="evenodd" d="M54.3968 644.564C56.8438 639.3 65.9601 621.443 71.2736 613.797C72.8005 611.599 74.2954 609.486 75.7135 607.512C79.9286 601.644 91.4082 608.4 87.1275 613.818C76.4668 627.312 60.7042 645.757 59.4017 647.385C57.5762 649.666 52.859 647.872 54.3968 644.564Z" fill="#F2F2F2"/>
<path fill-rule="evenodd" clip-rule="evenodd" d="M54.7969 642.304C53.8354 643.409 53.2355 644.28 52.997 644.918C52.707 645.694 52.413 646.874 52.1151 648.458C53.0149 648.795 61.1016 651.818 76.3752 657.529C77.7849 655.68 77.8417 654.419 76.5455 653.745C75.2494 653.071 74.1771 652.499 73.3288 652.029L63.9324 642.787C63.7516 642.609 63.4608 642.611 63.283 642.792C63.2799 642.795 63.2769 642.798 63.274 642.801L61.8918 644.289C60.4151 644.405 59.2836 644.317 58.4975 644.023C57.8587 643.784 57.0731 643.196 56.1406 642.259L56.1406 642.259C55.7827 641.9 55.2012 641.899 54.8417 642.256C54.8262 642.272 54.8113 642.288 54.7969 642.304Z" fill="#F2F2F2"/>
<path fill-rule="evenodd" clip-rule="evenodd" d="M114.776 644.668C114.496 646.106 114.412 647.16 114.525 647.832C114.661 648.648 114.997 649.817 115.531 651.339C116.479 651.18 124.994 649.755 141.076 647.064C141.373 644.758 140.791 643.638 139.332 643.702C137.872 643.766 136.658 643.807 135.688 643.824L122.929 640.518C122.684 640.455 122.433 640.602 122.369 640.848C122.368 640.852 122.367 640.856 122.366 640.86L121.913 642.839C120.692 643.679 119.668 644.167 118.84 644.306C118.168 644.419 117.194 644.302 115.918 643.957L115.918 643.957C115.428 643.825 114.924 644.115 114.791 644.604C114.786 644.625 114.781 644.647 114.776 644.668Z" fill="#F2F2F2"/>
<path fill-rule="evenodd" clip-rule="evenodd" d="M70.8124 609.585C56.6235 609.647 47.1142 609.656 42.2848 609.614C28.5188 609.494 23.4155 602.951 23.0938 586.866L47.7303 582.743C51.1481 583.139 65.7451 586.682 91.5213 593.373C96.1952 594.793 96.4485 601.243 96.008 603.456C95.99 603.547 90.8012 617.23 80.4415 644.506L58.1393 635.04L71.1034 611.092C71.3925 610.141 71.2955 609.639 70.8124 609.585Z" fill="#F2F2F2"/>
<path fill-rule="evenodd" clip-rule="evenodd" d="M66.5971 573.491L82.8195 581.682C86.9148 582.084 90.4086 582.851 93.3009 583.985C94.0166 584.447 94.959 585.467 92.3503 585.7C89.7417 585.933 87.0083 586.295 86.8 587.233C86.5916 588.171 88.3259 588.961 87.8059 590.266C87.4593 591.137 84.8652 589.534 80.0237 585.458L64.7245 581.92L66.5971 573.491ZM11.1887 583.139L20.6596 581.593C17.9726 601.436 16.4927 611.974 16.2201 613.206C15.6067 615.979 18.4864 619.563 19.7905 621.53C16.9329 623.429 16.4055 618.255 12.8123 620.72C9.53259 622.97 7.32882 626.421 2.7954 624.573C2.23805 624.346 1.48803 623.265 2.67214 622.124C5.62218 619.281 9.75517 614.479 10.1837 613.054C10.7682 611.11 11.1032 601.139 11.1887 583.139Z" fill="#F2F2F2"/>
<path fill-rule="evenodd" clip-rule="evenodd" d="M31.4399 538.923L35.2439 537.596C51.8754 547.717 61.8793 570.834 81.8285 580.628L78.4307 586.659C46.891 588.004 34.3099 559.871 31.4399 538.923Z" fill="#F2F2F2"/>
<path fill-rule="evenodd" clip-rule="evenodd" d="M22.6032 590.997C38.3065 588.37 49.8575 586.437 57.2562 585.198C58.8397 584.933 58.1587 582.697 57.7367 581.581C52.8667 568.708 40.1521 556.08 36.9802 537.125L26.7224 537.23C20.6799 551.91 20.5604 568.76 22.6032 590.997Z" fill="#F2F2F2"/>
<path fill-rule="evenodd" clip-rule="evenodd" d="M16.4288 552.389C14.9072 552.214 13.5947 551.434 12.4913 550.046C7.73474 544.065 8.44678 540.215 12.1515 538.369C15.8561 536.522 19.7492 538.397 25.9698 537.356C26.3082 537.299 26.6216 537.269 26.9102 537.264L30.0692 536.919C44.1387 565.844 50.0118 585.73 47.6886 596.577L20.414 601.141C19.4286 605.18 18.4127 608.609 17.3665 611.429L9.93464 612.672C5.4507 590.174 7.61541 570.08 16.4288 552.389Z" fill="#F2F2F2"/>
<path fill-rule="evenodd" clip-rule="evenodd" d="M23.7383 584.521C25.7971 591.554 28.063 596.53 30.5359 599.447L20.4141 601.141C21.5636 596.43 22.6716 590.89 23.7383 584.521Z" fill="#F2F2F2"/>
</g>
</g>
<defs>
<clipPath id="clip0">
<rect width="360" height="640" fill="white"/>
</clipPath>
<clipPath id="clip1">
<rect width="135.141" height="155" fill="white" transform="matrix(-0.986286 0.165048 0.165048 0.986286 116.074 494.91)"/>
</clipPath>
</defs>
</svg>
